<svg width="1440" height="213" viewBox="0 0 1440 213" fill="none" xmlns="http://www.w3.org/2000/svg">
<rect width="1440" height="213" fill="#6278F7"/>
<path d="M1047.54 100H1053.44C1054.92 100 1056.23 100.293 1057.38 100.88C1058.53 101.467 1059.41 102.293 1060.04 103.36C1060.68 104.413 1061 105.627 1061 107C1061 108.373 1060.68 109.593 1060.04 110.66C1059.41 111.713 1058.53 112.533 1057.38 113.12C1056.23 113.707 1054.92 114 1053.44 114H1047.54V100ZM1053.32 112.26C1054.45 112.26 1055.45 112.04 1056.3 111.6C1057.17 111.16 1057.83 110.547 1058.3 109.76C1058.77 108.96 1059 108.04 1059 107C1059 105.96 1058.77 105.047 1058.3 104.26C1057.83 103.46 1057.17 102.84 1056.3 102.4C1055.45 101.96 1054.45 101.74 1053.32 101.74H1049.54V112.26H1053.32ZM1073.36 108.76C1073.36 108.907 1073.35 109.1 1073.32 109.34H1064.72C1064.84 110.273 1065.25 111.027 1065.94 111.6C1066.65 112.16 1067.52 112.44 1068.56 112.44C1069.83 112.44 1070.85 112.013 1071.62 111.16L1072.68 112.4C1072.2 112.96 1071.6 113.387 1070.88 113.68C1070.18 113.973 1069.38 114.12 1068.5 114.12C1067.38 114.12 1066.39 113.893 1065.52 113.44C1064.66 112.973 1063.98 112.327 1063.5 111.5C1063.04 110.673 1062.8 109.74 1062.8 108.7C1062.8 107.673 1063.03 106.747 1063.48 105.92C1063.95 105.093 1064.58 104.453 1065.38 104C1066.2 103.533 1067.11 103.3 1068.12 103.3C1069.14 103.3 1070.04 103.533 1070.82 104C1071.62 104.453 1072.24 105.093 1072.68 105.92C1073.14 106.747 1073.36 107.693 1073.36 108.76ZM1068.12 104.92C1067.2 104.92 1066.43 105.2 1065.8 105.76C1065.19 106.32 1064.83 107.053 1064.72 107.96H1071.52C1071.42 107.067 1071.05 106.34 1070.42 105.78C1069.81 105.207 1069.04 104.92 1068.12 104.92ZM1079.07 114.12C1078.2 114.12 1077.37 114.007 1076.57 113.78C1075.77 113.54 1075.14 113.24 1074.69 112.88L1075.49 111.36C1075.96 111.693 1076.52 111.96 1077.19 112.16C1077.86 112.36 1078.53 112.46 1079.21 112.46C1080.89 112.46 1081.73 111.98 1081.73 111.02C1081.73 110.7 1081.62 110.447 1081.39 110.26C1081.16 110.073 1080.88 109.94 1080.53 109.86C1080.2 109.767 1079.72 109.667 1079.09 109.56C1078.24 109.427 1077.54 109.273 1076.99 109.1C1076.46 108.927 1076 108.633 1075.61 108.22C1075.22 107.807 1075.03 107.227 1075.03 106.48C1075.03 105.52 1075.43 104.753 1076.23 104.18C1077.03 103.593 1078.1 103.3 1079.45 103.3C1080.16 103.3 1080.86 103.387 1081.57 103.56C1082.28 103.733 1082.86 103.967 1083.31 104.26L1082.49 105.78C1081.62 105.22 1080.6 104.94 1079.43 104.94C1078.62 104.94 1078 105.073 1077.57 105.34C1077.14 105.607 1076.93 105.96 1076.93 106.4C1076.93 106.747 1077.05 107.02 1077.29 107.22C1077.53 107.42 1077.82 107.567 1078.17 107.66C1078.53 107.753 1079.03 107.86 1079.67 107.98C1080.52 108.127 1081.21 108.287 1081.73 108.46C1082.26 108.62 1082.72 108.9 1083.09 109.3C1083.46 109.7 1083.65 110.26 1083.65 110.98C1083.65 111.94 1083.24 112.707 1082.41 113.28C1081.6 113.84 1080.48 114.12 1079.07 114.12ZM1089.91 103.3C1091.38 103.3 1092.5 103.66 1093.27 104.38C1094.06 105.1 1094.45 106.173 1094.45 107.6V114H1092.63V112.6C1092.31 113.093 1091.85 113.473 1091.25 113.74C1090.66 113.993 1089.96 114.12 1089.15 114.12C1087.96 114.12 1087.01 113.833 1086.29 113.26C1085.58 112.687 1085.23 111.933 1085.23 111C1085.23 110.067 1085.57 109.32 1086.25 108.76C1086.93 108.187 1088.01 107.9 1089.49 107.9H1092.53V107.52C1092.53 106.693 1092.29 106.06 1091.81 105.62C1091.33 105.18 1090.62 104.96 1089.69 104.96C1089.06 104.96 1088.45 105.067 1087.85 105.28C1087.25 105.48 1086.74 105.753 1086.33 106.1L1085.53 104.66C1086.08 104.22 1086.73 103.887 1087.49 103.66C1088.25 103.42 1089.06 103.3 1089.91 103.3ZM1089.47 112.64C1090.2 112.64 1090.84 112.48 1091.37 112.16C1091.9 111.827 1092.29 111.36 1092.53 110.76V109.28H1089.57C1087.94 109.28 1087.13 109.827 1087.13 110.92C1087.13 111.453 1087.34 111.873 1087.75 112.18C1088.16 112.487 1088.74 112.64 1089.47 112.64ZM1099.84 105.18C1100.18 104.567 1100.67 104.1 1101.32 103.78C1101.98 103.46 1102.77 103.3 1103.7 103.3V105.16C1103.6 105.147 1103.45 105.14 1103.26 105.14C1102.22 105.14 1101.4 105.453 1100.8 106.08C1100.22 106.693 1099.92 107.573 1099.92 108.72V114H1098V103.4H1099.84V105.18ZM1107.91 105.18C1108.24 104.567 1108.74 104.1 1109.39 103.78C1110.04 103.46 1110.84 103.3 1111.77 103.3V105.16C1111.66 105.147 1111.52 105.14 1111.33 105.14C1110.29 105.14 1109.47 105.453 1108.87 106.08C1108.28 106.693 1107.99 107.573 1107.99 108.72V114H1106.07V103.4H1107.91V105.18ZM1118.58 114.12C1117.53 114.12 1116.58 113.887 1115.74 113.42C1114.9 112.953 1114.24 112.313 1113.76 111.5C1113.29 110.673 1113.06 109.74 1113.06 108.7C1113.06 107.66 1113.29 106.733 1113.76 105.92C1114.24 105.093 1114.9 104.453 1115.74 104C1116.58 103.533 1117.53 103.3 1118.58 103.3C1119.63 103.3 1120.57 103.533 1121.4 104C1122.24 104.453 1122.89 105.093 1123.36 105.92C1123.84 106.733 1124.08 107.66 1124.08 108.7C1124.08 109.74 1123.84 110.673 1123.36 111.5C1122.89 112.313 1122.24 112.953 1121.4 113.42C1120.57 113.887 1119.63 114.12 1118.58 114.12ZM1118.58 112.44C1119.26 112.44 1119.87 112.287 1120.4 111.98C1120.95 111.66 1121.37 111.22 1121.68 110.66C1121.99 110.087 1122.14 109.433 1122.14 108.7C1122.14 107.967 1121.99 107.32 1121.68 106.76C1121.37 106.187 1120.95 105.747 1120.4 105.44C1119.87 105.133 1119.26 104.98 1118.58 104.98C1117.9 104.98 1117.29 105.133 1116.74 105.44C1116.21 105.747 1115.78 106.187 1115.46 106.76C1115.15 107.32 1115 107.967 1115 108.7C1115 109.433 1115.15 110.087 1115.46 110.66C1115.78 111.22 1116.21 111.66 1116.74 111.98C1117.29 112.287 1117.9 112.44 1118.58 112.44ZM1126.73 99.16H1128.65V114H1126.73V99.16ZM1132.32 99.16H1134.24V114H1132.32V99.16ZM1141.77 103.3C1143.23 103.3 1144.35 103.66 1145.13 104.38C1145.91 105.1 1146.31 106.173 1146.31 107.6V114H1144.49V112.6C1144.17 113.093 1143.71 113.473 1143.11 113.74C1142.52 113.993 1141.82 114.12 1141.01 114.12C1139.82 114.12 1138.87 113.833 1138.15 113.26C1137.44 112.687 1137.09 111.933 1137.09 111C1137.09 110.067 1137.43 109.32 1138.11 108.76C1138.79 108.187 1139.87 107.9 1141.35 107.9H1144.39V107.52C1144.39 106.693 1144.15 106.06 1143.67 105.62C1143.19 105.18 1142.48 104.96 1141.55 104.96C1140.92 104.96 1140.31 105.067 1139.71 105.28C1139.11 105.48 1138.6 105.753 1138.19 106.1L1137.39 104.66C1137.93 104.22 1138.59 103.887 1139.35 103.66C1140.11 103.42 1140.91 103.3 1141.77 103.3ZM1141.33 112.64C1142.06 112.64 1142.69 112.48 1143.23 112.16C1143.76 111.827 1144.15 111.36 1144.39 110.76V109.28H1141.43C1139.8 109.28 1138.99 109.827 1138.99 110.92C1138.99 111.453 1139.19 111.873 1139.61 112.18C1140.02 112.487 1140.59 112.64 1141.33 112.64ZM1159.92 99.16V114H1158.08V112.32C1157.65 112.907 1157.11 113.353 1156.46 113.66C1155.8 113.967 1155.08 114.12 1154.3 114.12C1153.27 114.12 1152.35 113.893 1151.54 113.44C1150.72 112.987 1150.08 112.353 1149.62 111.54C1149.16 110.713 1148.94 109.767 1148.94 108.7C1148.94 107.633 1149.16 106.693 1149.62 105.88C1150.08 105.067 1150.72 104.433 1151.54 103.98C1152.35 103.527 1153.27 103.3 1154.3 103.3C1155.06 103.3 1155.76 103.447 1156.4 103.74C1157.04 104.02 1157.57 104.44 1158 105V99.16H1159.92ZM1154.46 112.44C1155.12 112.44 1155.73 112.287 1156.28 111.98C1156.82 111.66 1157.25 111.22 1157.56 110.66C1157.86 110.087 1158.02 109.433 1158.02 108.7C1158.02 107.967 1157.86 107.32 1157.56 106.76C1157.25 106.187 1156.82 105.747 1156.28 105.44C1155.73 105.133 1155.12 104.98 1154.46 104.98C1153.78 104.98 1153.16 105.133 1152.62 105.44C1152.08 105.747 1151.66 106.187 1151.34 106.76C1151.03 107.32 1150.88 107.967 1150.88 108.7C1150.88 109.433 1151.03 110.087 1151.34 110.66C1151.66 111.22 1152.08 111.66 1152.62 111.98C1153.16 112.287 1153.78 112.44 1154.46 112.44ZM1168.09 114.12C1167.04 114.12 1166.09 113.887 1165.25 113.42C1164.41 112.953 1163.75 112.313 1163.27 111.5C1162.8 110.673 1162.57 109.74 1162.57 108.7C1162.57 107.66 1162.8 106.733 1163.27 105.92C1163.75 105.093 1164.41 104.453 1165.25 104C1166.09 103.533 1167.04 103.3 1168.09 103.3C1169.14 103.3 1170.08 103.533 1170.91 104C1171.75 104.453 1172.4 105.093 1172.87 105.92C1173.35 106.733 1173.59 107.66 1173.59 108.7C1173.59 109.74 1173.35 110.673 1172.87 111.5C1172.4 112.313 1171.75 112.953 1170.91 113.42C1170.08 113.887 1169.14 114.12 1168.09 114.12ZM1168.09 112.44C1168.77 112.44 1169.38 112.287 1169.91 111.98C1170.46 111.66 1170.88 111.22 1171.19 110.66C1171.5 110.087 1171.65 109.433 1171.65 108.7C1171.65 107.967 1171.5 107.32 1171.19 106.76C1170.88 106.187 1170.46 105.747 1169.91 105.44C1169.38 105.133 1168.77 104.98 1168.09 104.98C1167.41 104.98 1166.8 105.133 1166.25 105.44C1165.72 105.747 1165.29 106.187 1164.97 106.76C1164.66 107.32 1164.51 107.967 1164.51 108.7C1164.51 109.433 1164.66 110.087 1164.97 110.66C1165.29 111.22 1165.72 111.66 1166.25 111.98C1166.8 112.287 1167.41 112.44 1168.09 112.44ZM1187.24 103.3C1188.26 103.3 1189.18 103.527 1190 103.98C1190.81 104.433 1191.44 105.067 1191.9 105.88C1192.36 106.693 1192.6 107.633 1192.6 108.7C1192.6 109.767 1192.36 110.713 1191.9 111.54C1191.44 112.353 1190.81 112.987 1190 113.44C1189.18 113.893 1188.26 114.12 1187.24 114.12C1186.48 114.12 1185.78 113.973 1185.14 113.68C1184.51 113.387 1183.98 112.96 1183.54 112.4V117.88H1181.62V103.4H1183.46V105.08C1183.88 104.493 1184.42 104.053 1185.08 103.76C1185.73 103.453 1186.45 103.3 1187.24 103.3ZM1187.08 112.44C1187.76 112.44 1188.36 112.287 1188.9 111.98C1189.44 111.66 1189.87 111.22 1190.18 110.66C1190.5 110.087 1190.66 109.433 1190.66 108.7C1190.66 107.967 1190.5 107.32 1190.18 106.76C1189.87 106.187 1189.44 105.747 1188.9 105.44C1188.36 105.133 1187.76 104.98 1187.08 104.98C1186.41 104.98 1185.8 105.14 1185.26 105.46C1184.72 105.767 1184.3 106.2 1183.98 106.76C1183.67 107.32 1183.52 107.967 1183.52 108.7C1183.52 109.433 1183.67 110.087 1183.98 110.66C1184.28 111.22 1184.71 111.66 1185.26 111.98C1185.8 112.287 1186.41 112.44 1187.08 112.44ZM1199.79 114.12C1198.74 114.12 1197.79 113.887 1196.95 113.42C1196.11 112.953 1195.45 112.313 1194.97 111.5C1194.5 110.673 1194.27 109.74 1194.27 108.7C1194.27 107.66 1194.5 106.733 1194.97 105.92C1195.45 105.093 1196.11 104.453 1196.95 104C1197.79 103.533 1198.74 103.3 1199.79 103.3C1200.84 103.3 1201.78 103.533 1202.61 104C1203.45 104.453 1204.1 105.093 1204.57 105.92C1205.05 106.733 1205.29 107.66 1205.29 108.7C1205.29 109.74 1205.05 110.673 1204.57 111.5C1204.1 112.313 1203.45 112.953 1202.61 113.42C1201.78 113.887 1200.84 114.12 1199.79 114.12ZM1199.79 112.44C1200.47 112.44 1201.08 112.287 1201.61 111.98C1202.16 111.66 1202.58 111.22 1202.89 110.66C1203.2 110.087 1203.35 109.433 1203.35 108.7C1203.35 107.967 1203.2 107.32 1202.89 106.76C1202.58 106.187 1202.16 105.747 1201.61 105.44C1201.08 105.133 1200.47 104.98 1199.79 104.98C1199.11 104.98 1198.5 105.133 1197.95 105.44C1197.42 105.747 1196.99 106.187 1196.67 106.76C1196.36 107.32 1196.21 107.967 1196.21 108.7C1196.21 109.433 1196.36 110.087 1196.67 110.66C1196.99 111.22 1197.42 111.66 1197.95 111.98C1198.5 112.287 1199.11 112.44 1199.79 112.44ZM1209.79 105.18C1210.12 104.567 1210.61 104.1 1211.26 103.78C1211.92 103.46 1212.71 103.3 1213.65 103.3V105.16C1213.54 105.147 1213.39 105.14 1213.21 105.14C1212.17 105.14 1211.35 105.453 1210.75 106.08C1210.16 106.693 1209.87 107.573 1209.87 108.72V114H1207.95V103.4H1209.79V105.18ZM1230.72 110.5H1223.28L1221.74 114H1219.68L1226.02 100H1228L1234.36 114H1232.26L1230.72 110.5ZM1230.02 108.9L1227 102.04L1223.98 108.9H1230.02ZM1236.17 99.16H1238.09V114H1236.17V99.16ZM1251.63 103.4V114H1249.81V112.4C1249.43 112.947 1248.91 113.373 1248.27 113.68C1247.65 113.973 1246.96 114.12 1246.21 114.12C1244.8 114.12 1243.69 113.733 1242.87 112.96C1242.06 112.173 1241.65 111.02 1241.65 109.5V103.4H1243.57V109.28C1243.57 110.307 1243.82 111.087 1244.31 111.62C1244.81 112.14 1245.51 112.4 1246.43 112.4C1247.45 112.4 1248.25 112.093 1248.83 111.48C1249.42 110.867 1249.71 110 1249.71 108.88V103.4H1251.63ZM1257.13 105.18C1257.46 104.567 1257.96 104.1 1258.61 103.78C1259.26 103.46 1260.06 103.3 1260.99 103.3V105.16C1260.88 105.147 1260.74 105.14 1260.55 105.14C1259.51 105.14 1258.69 105.453 1258.09 106.08C1257.5 106.693 1257.21 107.573 1257.21 108.72V114H1255.29V103.4H1257.13V105.18ZM1267.2 103.3C1268.66 103.3 1269.78 103.66 1270.56 104.38C1271.34 105.1 1271.74 106.173 1271.74 107.6V114H1269.92V112.6C1269.6 113.093 1269.14 113.473 1268.54 113.74C1267.95 113.993 1267.25 114.12 1266.44 114.12C1265.25 114.12 1264.3 113.833 1263.58 113.26C1262.87 112.687 1262.52 111.933 1262.52 111C1262.52 110.067 1262.86 109.32 1263.54 108.76C1264.22 108.187 1265.3 107.9 1266.78 107.9H1269.82V107.52C1269.82 106.693 1269.58 106.06 1269.1 105.62C1268.62 105.18 1267.91 104.96 1266.98 104.96C1266.35 104.96 1265.74 105.067 1265.14 105.28C1264.54 105.48 1264.03 105.753 1263.62 106.1L1262.82 104.66C1263.36 104.22 1264.02 103.887 1264.78 103.66C1265.54 103.42 1266.34 103.3 1267.2 103.3ZM1266.76 112.64C1267.49 112.64 1268.12 112.48 1268.66 112.16C1269.19 111.827 1269.58 111.36 1269.82 110.76V109.28H1266.86C1265.23 109.28 1264.42 109.827 1264.42 110.92C1264.42 111.453 1264.62 111.873 1265.04 112.18C1265.45 112.487 1266.02 112.64 1266.76 112.64ZM1275.75 114.12C1275.38 114.12 1275.06 113.993 1274.79 113.74C1274.52 113.473 1274.39 113.14 1274.39 112.74C1274.39 112.353 1274.52 112.033 1274.79 111.78C1275.06 111.513 1275.38 111.38 1275.75 111.38C1276.12 111.38 1276.44 111.507 1276.69 111.76C1276.94 112.013 1277.07 112.34 1277.07 112.74C1277.07 113.14 1276.94 113.473 1276.67 113.74C1276.42 113.993 1276.11 114.12 1275.75 114.12Z" fill="white"/>
<path d="M688.068 115.46C686.354 115.46 684.82 115.076 683.458 114.298C682.104 113.521 681.032 112.456 680.253 111.093C679.473 109.731 679.078 108.185 679.078 106.465C679.078 104.745 679.473 103.173 680.253 101.836C681.032 100.5 682.095 99.4436 683.441 98.6664C684.786 97.8891 686.329 97.5049 688.068 97.5049C689.808 97.5049 691.316 97.8891 692.679 98.6489C694.033 99.4087 695.096 100.465 695.867 101.819C696.638 103.173 697.024 104.718 697.024 106.465C697.024 108.212 696.638 109.757 695.867 111.111C695.096 112.465 694.033 113.521 692.679 114.298C691.325 115.076 689.782 115.46 688.068 115.46ZM688.068 112.674C689.174 112.674 690.168 112.421 691.051 111.914C691.933 111.408 692.619 110.683 693.116 109.74C693.613 108.797 693.862 107.714 693.862 106.474C693.862 105.234 693.613 104.125 693.116 103.208C692.619 102.291 691.925 101.574 691.051 101.068C690.168 100.561 689.174 100.308 688.068 100.308C686.963 100.308 685.977 100.561 685.103 101.068C684.238 101.574 683.543 102.291 683.021 103.208C682.498 104.125 682.241 105.216 682.241 106.474C682.241 107.731 682.498 108.805 683.021 109.74C683.543 110.683 684.238 111.408 685.103 111.914C685.969 112.421 686.963 112.674 688.068 112.674Z" fill="white"/>
<path d="M702.397 115.259V97.6708H705.397V102.448L705.105 101.251C705.585 100.037 706.382 99.103 707.513 98.4655C708.645 97.828 710.033 97.5049 711.678 97.5049V100.588C711.55 100.57 711.421 100.553 711.301 100.553H710.959C709.287 100.553 707.959 101.059 706.982 102.081C706.005 103.103 705.517 104.57 705.517 106.491V115.25H702.389L702.397 115.259Z" fill="white"/>
<path d="M723.565 114.534C721.894 114.534 720.403 114.176 719.083 113.46C717.763 112.744 716.726 111.74 715.955 110.456C715.183 109.172 714.798 107.688 714.798 106.011C714.798 104.334 715.183 102.823 715.955 101.548C716.726 100.273 717.772 99.2865 719.083 98.5791C720.394 97.8717 721.885 97.5137 723.565 97.5137C725.039 97.5137 726.384 97.8193 727.601 98.4219C728.818 99.0332 729.787 99.9677 730.515 101.225C731.244 102.483 731.603 104.081 731.603 106.002C731.603 107.923 731.244 109.487 730.515 110.744C729.787 112.002 728.818 112.954 727.601 113.582C726.384 114.211 725.039 114.526 723.565 114.526V114.534ZM723.959 121.905C722.374 121.905 720.84 121.678 719.348 121.224C717.857 120.77 716.649 120.123 715.715 119.285L717.215 116.831C718.02 117.538 719.006 118.097 720.18 118.508C721.354 118.918 722.579 119.119 723.856 119.119C725.896 119.119 727.396 118.63 728.347 117.661C729.298 116.691 729.778 115.207 729.778 113.216V109.495L730.104 106.011L729.941 102.491V97.6796H732.906V112.875C732.906 115.975 732.143 118.255 730.626 119.713C729.11 121.171 726.881 121.905 723.951 121.905H723.959ZM723.925 111.748C725.073 111.748 726.093 111.504 726.984 111.015C727.876 110.526 728.578 109.853 729.084 108.989C729.598 108.124 729.847 107.129 729.847 106.002C729.847 104.876 729.59 103.88 729.084 103.015C728.578 102.151 727.876 101.487 726.984 101.007C726.093 100.535 725.073 100.291 723.925 100.291C722.776 100.291 721.748 100.527 720.848 101.007C719.948 101.478 719.237 102.151 718.731 103.015C718.226 103.88 717.969 104.876 717.969 106.002C717.969 107.129 718.226 108.124 718.731 108.989C719.246 109.853 719.948 110.526 720.848 111.015C721.748 111.504 722.776 111.748 723.925 111.748Z" fill="white"/>
<path d="M642.211 87.2262C642.425 87.6629 642.862 87.9423 643.342 87.9423C643.822 87.9423 644.259 87.6629 644.473 87.2262L649.564 76.8689C649.761 76.4671 649.735 75.9956 649.504 75.6113C649.272 75.2271 648.861 75 648.424 75H638.269C637.832 75 637.42 75.2358 637.189 75.6113C636.957 75.9956 636.94 76.4671 637.129 76.8689L642.211 87.2262ZM646.376 77.585L643.351 83.7592L640.325 77.585H646.376ZM643.351 112.971C645.039 112.971 646.65 112.29 647.841 111.076C649.032 109.862 649.701 108.212 649.701 106.5C649.701 104.788 649.032 103.138 647.841 101.924C646.65 100.71 645.03 100.029 643.351 100.029C641.671 100.029 640.051 100.71 638.86 101.924C637.669 103.138 637 104.788 637 106.5C637 108.212 637.669 109.862 638.86 111.076C640.051 112.29 641.662 112.971 643.351 112.971ZM643.351 102.614C644.362 102.614 645.33 103.024 646.05 103.749C646.761 104.474 647.164 105.47 647.164 106.5C647.164 107.53 646.761 108.517 646.05 109.251C645.339 109.976 644.362 110.386 643.351 110.386C642.339 110.386 641.371 109.976 640.651 109.251C639.94 108.526 639.537 107.53 639.537 106.5C639.537 105.47 639.94 104.483 640.651 103.749C641.362 103.024 642.339 102.614 643.351 102.614ZM638.269 138H648.433C649.135 138 649.701 137.424 649.701 136.708V126.35C649.701 125.634 649.135 125.058 648.433 125.058H638.269C637.566 125.058 637 125.634 637 126.35V136.708C637 137.424 637.566 138 638.269 138ZM639.537 127.643H647.164V135.415H639.537V127.643ZM659.865 130.236V107.792H652.666C651.963 107.792 651.398 107.216 651.398 106.5C651.398 105.784 651.963 105.208 652.666 105.208H659.865V82.7637H652.666C651.963 82.7637 651.398 82.1873 651.398 81.4712C651.398 80.7551 651.963 80.1787 652.666 80.1787H661.133C661.836 80.1787 662.401 80.7551 662.401 81.4712V105.208H669.6C670.303 105.208 670.869 105.784 670.869 106.5C670.869 107.216 670.303 107.792 669.6 107.792H662.401V131.529C662.401 132.245 661.836 132.821 661.133 132.821H652.666C651.963 132.821 651.398 132.245 651.398 131.529C651.398 130.813 651.963 130.236 652.666 130.236H659.865Z" fill="white"/>
<path d="M189.702 107C189.702 100.578 184.499 95.375 178.077 95.375C171.655 95.375 166.452 100.578 166.452 107C166.452 112.812 170.671 117.641 176.249 118.484V110.375H173.296V107H176.249V104.469C176.249 101.562 177.983 99.9219 180.608 99.9219C181.921 99.9219 183.233 100.156 183.233 100.156V103.016H181.78C180.327 103.016 179.858 103.906 179.858 104.844V107H183.093L182.577 110.375H179.858V118.484C185.436 117.641 189.702 112.812 189.702 107Z" fill="white"/>
<path d="M254.516 102.125C255.453 101.422 256.297 100.578 256.953 99.5938C256.109 99.9688 255.125 100.25 254.141 100.344C255.172 99.7344 255.922 98.7969 256.297 97.625C255.359 98.1875 254.281 98.6094 253.203 98.8438C252.266 97.8594 251 97.2969 249.594 97.2969C246.875 97.2969 244.672 99.5 244.672 102.219C244.672 102.594 244.719 102.969 244.812 103.344C240.734 103.109 237.078 101.141 234.641 98.1875C234.219 98.8906 233.984 99.7344 233.984 100.672C233.984 102.359 234.828 103.859 236.188 104.75C235.391 104.703 234.594 104.516 233.938 104.141V104.188C233.938 106.578 235.625 108.547 237.875 109.016C237.5 109.109 237.031 109.203 236.609 109.203C236.281 109.203 236 109.156 235.672 109.109C236.281 111.078 238.109 112.484 240.266 112.531C238.578 113.844 236.469 114.641 234.172 114.641C233.75 114.641 233.375 114.594 233 114.547C235.156 115.953 237.734 116.75 240.547 116.75C249.594 116.75 254.516 109.297 254.516 102.781C254.516 102.547 254.516 102.359 254.516 102.125Z" fill="white"/>
<path d="M310.5 101.609C307.5 101.609 305.109 104.047 305.109 107C305.109 110 307.5 112.391 310.5 112.391C313.453 112.391 315.891 110 315.891 107C315.891 104.047 313.453 101.609 310.5 101.609ZM310.5 110.516C308.578 110.516 306.984 108.969 306.984 107C306.984 105.078 308.531 103.531 310.5 103.531C312.422 103.531 313.969 105.078 313.969 107C313.969 108.969 312.422 110.516 310.5 110.516ZM317.344 101.422C317.344 100.719 316.781 100.156 316.078 100.156C315.375 100.156 314.812 100.719 314.812 101.422C314.812 102.125 315.375 102.688 316.078 102.688C316.781 102.688 317.344 102.125 317.344 101.422ZM320.906 102.688C320.812 101 320.438 99.5 319.219 98.2812C318 97.0625 316.5 96.6875 314.812 96.5938C313.078 96.5 307.875 96.5 306.141 96.5938C304.453 96.6875 303 97.0625 301.734 98.2812C300.516 99.5 300.141 101 300.047 102.688C299.953 104.422 299.953 109.625 300.047 111.359C300.141 113.047 300.516 114.5 301.734 115.766C303 116.984 304.453 117.359 306.141 117.453C307.875 117.547 313.078 117.547 314.812 117.453C316.5 117.359 318 116.984 319.219 115.766C320.438 114.5 320.812 113.047 320.906 111.359C321 109.625 321 104.422 320.906 102.688ZM318.656 113.188C318.328 114.125 317.578 114.828 316.688 115.203C315.281 115.766 312 115.625 310.5 115.625C308.953 115.625 305.672 115.766 304.312 115.203C303.375 114.828 302.672 114.125 302.297 113.188C301.734 111.828 301.875 108.547 301.875 107C301.875 105.5 301.734 102.219 302.297 100.812C302.672 99.9219 303.375 99.2188 304.312 98.8438C305.672 98.2812 308.953 98.4219 310.5 98.4219C312 98.4219 315.281 98.2812 316.688 98.8438C317.578 99.1719 318.281 99.9219 318.656 100.812C319.219 102.219 319.078 105.5 319.078 107C319.078 108.547 319.219 111.828 318.656 113.188Z" fill="white"/>
<circle cx="932.5" cy="69.5" r="43.5" stroke="white" stroke-width="2"/>
<path d="M436.812 107.642L526.319 83.6586L502.336 173.166L436.812 107.642Z" stroke="#95FFD4" stroke-width="2"/>
<path d="M36.7609 173.5L74 109L111.239 173.5H36.7609Z" stroke="#95FFD4" stroke-width="2"/>
<circle cx="1400.5" cy="177.5" r="54.5" stroke="#95FFD4" stroke-width="2"/>
</svg>
